<svg xmlns="http://www.w3.org/2000/svg" viewBox="0 8.859999656677246 87.16000366210938 37.0099983215332" data-asc="0.9052734375"><g fill="#000000"><g fill="#000000" transform="translate(0, 0)"><path d="M0 45.26L0 9.47L4.74 9.47L4.74 45.26L0 45.26ZM19.34 45.26L9.84 9.47L14.70 9.47L20.14 32.93Q21.02 36.62 21.66 40.26Q23.02 34.52 23.27 33.64L30.08 9.47L35.79 9.47L40.92 27.59Q42.85 34.33 43.70 40.26Q44.38 36.87 45.48 32.47L51.10 9.47L55.86 9.47L46.04 45.26L41.48 45.26L33.94 17.99Q32.98 14.58 32.81 13.79Q32.25 16.26 31.76 17.99L24.17 45.26L19.34 45.26ZM58.67 33.76L63.13 33.37Q63.45 36.06 64.61 37.78Q65.77 39.50 68.21 40.56Q70.65 41.63 73.71 41.63Q76.42 41.63 78.49 40.82Q80.57 40.01 81.58 38.61Q82.59 37.21 82.59 35.55Q82.59 33.86 81.62 32.60Q80.64 31.35 78.39 30.49Q76.95 29.93 72.02 28.75Q67.09 27.56 65.11 26.51Q62.55 25.17 61.29 23.18Q60.03 21.19 60.03 18.73Q60.03 16.02 61.57 13.66Q63.11 11.30 66.06 10.08Q69.02 8.86 72.63 8.86Q76.61 8.86 79.65 10.14Q82.69 11.43 84.33 13.92Q85.96 16.41 86.08 19.56L81.54 19.90Q81.18 16.50 79.06 14.77Q76.95 13.04 72.83 13.04Q68.53 13.04 66.56 14.61Q64.60 16.19 64.60 18.41Q64.60 20.34 65.99 21.58Q67.36 22.83 73.13 24.13Q78.91 25.44 81.05 26.42Q84.18 27.86 85.67 30.07Q87.16 32.28 87.16 35.16Q87.16 38.01 85.52 40.54Q83.89 43.07 80.82 44.47Q77.76 45.87 73.93 45.87Q69.07 45.87 65.78 44.46Q62.50 43.04 60.63 40.20Q58.76 37.35 58.67 33.76Z"/></g><g fill="#000000" transform="translate(0, 60.595703125)"><path d=""/></g></g></svg>